<?xml version="1.0" standalone="no"?>
<!DOCTYPE svg PUBLIC "-//W3C//DTD SVG 20010904//EN"
 "http://www.w3.org/TR/2001/REC-SVG-20010904/DTD/svg10.dtd">
<svg version="1.0" xmlns="http://www.w3.org/2000/svg"
 width="512.000000pt" height="512.000000pt" viewBox="0 0 512.000000 512.000000"
 preserveAspectRatio="xMidYMid meet">
<metadata>
Created by potrace 1.11, written by Peter Selinger 2001-2013
</metadata>
<g transform="translate(0.000000,512.000000) scale(0.100000,-0.100000)"
fill="#000000" stroke="none">
<path d="M145 5096 c-60 -28 -97 -66 -124 -126 -20 -45 -21 -52 -21 -2410 l0
-2365 24 -50 c28 -60 66 -97 126 -124 45 -20 52 -21 2410 -21 l2365 0 50 24
c60 28 97 66 124 126 20 45 21 52 21 2410 0 2358 -1 2365 -21 2410 -27 60 -64
98 -124 126 l-50 24 -2365 0 -2365 0 -50 -24z m4676 -187 c71 -15 124 -69 136
-136 10 -62 11 -4463 0 -4525 -6 -33 -18 -59 -41 -83 l-33 -35 -2317 0 c-1737
0 -2323 3 -2339 12 -26 13 -48 42 -64 83 -17 43 -17 4527 0 4570 24 62 68 101
130 115 54 13 4468 12 4528 -1z"/>
<path d="M1140 4072 c0 -5 -85 -410 -190 -902 -104 -491 -190 -895 -190 -897
0 -2 84 -2 187 -1 l187 3 113 520 c62 286 117 544 124 573 6 29 15 52 20 50 6
-2 144 -260 309 -573 l298 -570 149 -3 148 -2 188 887 c104 489 191 896 193
906 5 16 -7 17 -183 15 l-188 -3 -125 -577 c-69 -318 -130 -578 -135 -578 -6
0 -145 261 -310 580 l-299 580 -148 0 c-81 0 -148 -4 -148 -8z"/>
<path d="M3120 4072 c0 -5 -85 -410 -190 -902 -104 -491 -190 -895 -190 -897
0 -1 87 -3 193 -3 l194 0 69 325 69 325 160 -2 159 -3 106 -322 105 -323 207
0 208 0 -47 133 c-26 72 -81 229 -123 347 l-77 215 53 22 c106 43 235 149 292
240 61 98 102 236 102 340 0 100 -45 229 -109 312 -38 50 -145 127 -210 152
-112 42 -184 48 -588 49 -211 0 -383 -4 -383 -8z m753 -328 c49 -17 110 -75
128 -122 15 -38 14 -142 -1 -188 -30 -92 -100 -157 -209 -194 -53 -17 -86 -20
-262 -20 l-201 0 4 23 c3 12 29 133 59 270 l54 247 191 0 c147 0 201 -4 237
-16z"/>
<path d="M1354 1273 c-12 -47 57 -68 71 -21 9 25 -11 48 -41 48 -17 0 -25 -7
-30 -27z"/>
<path d="M1701 1289 c-137 -27 -234 -162 -234 -328 -1 -146 80 -230 218 -231
167 0 294 156 283 348 -8 150 -122 240 -267 211z m112 -63 c69 -29 103 -100
94 -196 -16 -182 -157 -293 -294 -231 -101 46 -116 220 -30 347 54 80 151 114
230 80z"/>
<path d="M2240 1291 c-89 -18 -140 -73 -140 -149 0 -73 53 -123 172 -161 57
-19 88 -53 88 -99 0 -86 -115 -130 -211 -82 -25 13 -46 34 -56 55 -13 28 -23
35 -45 35 -33 0 -33 0 -13 -47 20 -48 41 -71 88 -95 47 -23 149 -26 198 -5
103 44 134 166 62 239 -16 15 -62 42 -103 59 -90 36 -120 62 -120 101 0 42 17
68 55 84 75 31 165 4 188 -56 9 -24 17 -30 40 -30 28 0 29 2 23 32 -16 80
-128 139 -226 119z"/>
<path d="M2824 1279 c-5 -8 -34 -131 -65 -274 l-55 -260 129 -3 c151 -3 201 9
266 64 113 97 143 304 58 401 -47 54 -101 73 -221 80 -82 5 -105 3 -112 -8z
m236 -71 c58 -30 83 -73 84 -146 2 -88 -21 -150 -73 -202 -56 -55 -100 -70
-213 -70 l-85 0 44 208 c24 114 46 213 48 220 3 8 28 12 78 12 56 0 83 -5 117
-22z"/>
<path d="M1335 1138 c-2 -7 -20 -92 -40 -188 -20 -96 -39 -183 -41 -192 -4
-14 1 -18 25 -18 17 0 31 3 31 8 0 4 18 91 40 192 22 101 40 190 40 197 0 17
-49 17 -55 1z"/>
<path d="M3400 1132 c-142 -78 -165 -319 -35 -382 85 -41 203 -8 244 68 11 21
10 22 -21 22 -22 0 -37 -7 -45 -20 -16 -24 -80 -42 -122 -34 -45 9 -81 56 -81
105 l0 39 149 0 149 0 7 28 c10 48 -10 112 -49 151 -32 31 -42 35 -98 39 -48
2 -71 -1 -98 -16z m154 -58 c14 -15 26 -32 26 -38 0 -6 3 -21 6 -33 6 -23 6
-23 -116 -23 -121 0 -121 0 -115 23 4 12 24 39 45 60 33 31 46 37 83 37 34 0
50 -6 71 -26z"/>
<path d="M3750 1128 c0 -21 45 -316 56 -366 4 -19 10 -23 37 -20 30 3 38 14
144 197 62 106 113 197 113 202 0 5 -12 9 -27 9 -26 0 -36 -15 -123 -170 -52
-93 -95 -168 -96 -167 -1 1 -12 67 -24 147 -29 194 -28 190 -56 190 -18 0 -24
-5 -24 -22z"/>
</g>
</svg>
